<svg xmlns="http://www.w3.org/2000/svg" width="512" height="512" viewBox="0 0 512 512">
  <metadata><?xpacket begin="﻿" id="W5M0MpCehiHzreSzNTczkc9d"?>
<x:xmpmeta xmlns:x="adobe:ns:meta/" x:xmptk="Adobe XMP Core 5.6-c140 79.160451, 2017/05/06-01:08:21        ">
   <rdf:RDF xmlns:rdf="http://www.w3.org/1999/02/22-rdf-syntax-ns#">
      <rdf:Description rdf:about=""/>
   </rdf:RDF>
</x:xmpmeta>
                                                                                                    
                                                                                                    
                                                                                                    
                                                                                                    
                                                                                                    
                                                                                                    
                                                                                                    
                                                                                                    
                                                                                                    
                                                                                                    
                                                                                                    
                                                                                                    
                                                                                                    
                                                                                                    
                                                                                                    
                                                                                                    
                                                                                                    
                                                                                                    
                                                                                                    
                                                                                                    
                           
<?xpacket end="w"?></metadata>
<defs>
    <style>
      .cls-1 {
        fill: #ff8a00;
      }

      .cls-1, .cls-2, .cls-3, .cls-4 {
        fill-rule: evenodd;
      }

      .cls-2 {
        fill: #fff;
      }

      .cls-3 {
        fill: #ff6c00;
      }

      .cls-4 {
        fill: #00b104;
      }
    </style>
  </defs>
  <path class="cls-1" d="M198,137s52.065-56.469,116-1c0,0,111.047-59.293,118,152-8.307,212.172-118,151-118,151s-54.309,57.186-116,0c0,0-109.3,61.449-118-152C93.6,74.752,198,137,198,137Z"/>
  <path class="cls-2" d="M176,177l-48,79h96Zm-1,165v26"/>
  <path id="Shape_1_copy" data-name="Shape 1 copy" class="cls-2" d="M336,177l-48,79h96Z"/>
  <path id="Shape_1_copy_2" data-name="Shape 1 copy 2" class="cls-2" d="M256,253.682l-30.65,50.445h61.3Z"/>
  <path class="cls-2" d="M176,342v25h32V349s58.964,7.055,80,1v33h32V346s50.281-13.808,57-20,12.7,7.689,10,10-33.248,78.113-130,79V383H223v28s-69.947-13.1-97-75c-2.849-12.066,7-10,7-10S169.638,341.189,176,342Z"/>
  <path class="cls-3" d="M406,145s74,10.082,74,141-76,146-76,146,44-45.258,44-147S406,145,406,145Z"/>
  <path id="Shape_4_copy" data-name="Shape 4 copy" class="cls-3" d="M107,145S33,155.082,33,286s76,146,76,146S65,386.742,65,285,107,145,107,145Z"/>
  <path class="cls-4" d="M211,105s44.3-21.606,89,0c0,0-2.443-12.33-27-23,0,0-3.834-27.586,12-41,12.213-15.623-10.217-31.877-21-23-9.215,9.852-24.3,19.953-24,64C240,82,222.365,85.727,211,105Z"/>
</svg>
